<mxfile host="app.diagrams.net" agent="Mozilla/5.0 (Windows NT 10.0; Win64; x64) AppleWebKit/537.36 (KHTML, like Gecko) Chrome/138.0.0.0 Safari/537.36" version="27.2.0">
  <diagram name="Page-1" id="q_BrkVPpsMOyxXZ1SZbu">
    <mxGraphModel dx="1356" dy="762" grid="1" gridSize="10" guides="1" tooltips="1" connect="1" arrows="1" fold="1" page="1" pageScale="1" pageWidth="850" pageHeight="1100" math="0" shadow="0">
      <root>
        <mxCell id="0" />
        <mxCell id="1" parent="0" />
        <mxCell id="QeEPjvZXILuXQwoDtI1U-3" value="AAP" style="rounded=1;whiteSpace=wrap;html=1;verticalAlign=top;" parent="1" vertex="1">
          <mxGeometry x="70" y="110" width="190" height="190" as="geometry" />
        </mxCell>
        <mxCell id="QeEPjvZXILuXQwoDtI1U-4" value="Bastion Deployment:&lt;div&gt;&lt;span style=&quot;background-color: transparent; color: light-dark(rgb(0, 0, 0), rgb(255, 255, 255));&quot;&gt;- User&lt;/span&gt;&lt;br&gt;&lt;span style=&quot;background-color: transparent; color: light-dark(rgb(0, 0, 0), rgb(255, 255, 255));&quot;&gt;- Target Cluster&lt;/span&gt;&lt;br&gt;&lt;span style=&quot;background-color: transparent; color: light-dark(rgb(0, 0, 0), rgb(255, 255, 255));&quot;&gt;- TTL&amp;nbsp;&lt;/span&gt;&lt;/div&gt;" style="aspect=fixed;sketch=0;html=1;dashed=0;whitespace=wrap;verticalLabelPosition=bottom;verticalAlign=top;fillColor=#2875E2;strokeColor=#ffffff;points=[[0.005,0.63,0],[0.1,0.2,0],[0.9,0.2,0],[0.5,0,0],[0.995,0.63,0],[0.72,0.99,0],[0.5,1,0],[0.28,0.99,0]];shape=mxgraph.kubernetes.icon2;kubernetesLabel=1;prIcon=job;align=left;" parent="1" vertex="1">
          <mxGeometry x="110" y="150" width="50" height="48" as="geometry" />
        </mxCell>
        <mxCell id="QeEPjvZXILuXQwoDtI1U-9" value="VPC" style="points=[[0,0],[0.25,0],[0.5,0],[0.75,0],[1,0],[1,0.25],[1,0.5],[1,0.75],[1,1],[0.75,1],[0.5,1],[0.25,1],[0,1],[0,0.75],[0,0.5],[0,0.25]];outlineConnect=0;gradientColor=none;html=1;whiteSpace=wrap;fontSize=12;fontStyle=0;container=1;pointerEvents=0;collapsible=0;recursiveResize=0;shape=mxgraph.aws4.group;grIcon=mxgraph.aws4.group_vpc2;strokeColor=#8C4FFF;fillColor=none;verticalAlign=top;align=left;spacingLeft=30;fontColor=#AAB7B8;dashed=0;" parent="1" vertex="1">
          <mxGeometry x="360" y="60" width="440" height="550" as="geometry" />
        </mxCell>
        <mxCell id="QeEPjvZXILuXQwoDtI1U-5" value="" style="container=1;collapsible=0;expand=0;recursiveResize=0;html=1;whiteSpace=wrap;strokeColor=light-dark(#198038,#FF3333);fillColor=none;strokeWidth=1;dashed=1;dashPattern=8 8;" parent="QeEPjvZXILuXQwoDtI1U-9" vertex="1">
          <mxGeometry x="60" y="270" width="315" height="240" as="geometry" />
        </mxCell>
        <mxCell id="QeEPjvZXILuXQwoDtI1U-6" value="OpenShift" style="shape=rect;fillColor=none;aspect=fixed;resizable=0;labelPosition=right;verticalLabelPosition=middle;align=left;verticalAlign=middle;strokeColor=none;part=1;spacingLeft=5;fontSize=14;" parent="QeEPjvZXILuXQwoDtI1U-5" vertex="1">
          <mxGeometry width="48" height="48" relative="1" as="geometry" />
        </mxCell>
        <mxCell id="QeEPjvZXILuXQwoDtI1U-7" value="" style="fillColor=light-dark(#198038,#FF0000);shape=mxgraph.ibm_cloud.logo--openshift;strokeColor=none;dashed=0;outlineConnect=0;html=1;labelPosition=center;verticalLabelPosition=bottom;verticalAlign=top;part=1;movable=0;resizable=0;rotatable=0;" parent="QeEPjvZXILuXQwoDtI1U-6" vertex="1">
          <mxGeometry width="24" height="24" relative="1" as="geometry">
            <mxPoint x="12" y="12" as="offset" />
          </mxGeometry>
        </mxCell>
        <mxCell id="QeEPjvZXILuXQwoDtI1U-8" value="" style="shape=rect;fillColor=light-dark(#198038,#FF3333);aspect=fixed;resizable=0;labelPosition=right;verticalLabelPosition=middle;align=left;verticalAlign=middle;strokeColor=none;part=1;spacingLeft=5;fontSize=14;" parent="QeEPjvZXILuXQwoDtI1U-5" vertex="1">
          <mxGeometry width="4" height="48" relative="1" as="geometry" />
        </mxCell>
      </root>
    </mxGraphModel>
  </diagram>
</mxfile>
